<svg xmlns="http://www.w3.org/2000/svg" viewBox="0 0 500 500"><g id="freepik--background-complete--inject-90"><path d="M444.71,349.14H264a5.87,5.87,0,0,1-5.86-5.86V80A5.87,5.87,0,0,1,264,74.15H444.71A5.87,5.87,0,0,1,450.57,80V343.28A5.87,5.87,0,0,1,444.71,349.14ZM264,74.4A5.61,5.61,0,0,0,258.35,80V343.28a5.61,5.61,0,0,0,5.61,5.61H444.71a5.61,5.61,0,0,0,5.61-5.61V80a5.61,5.61,0,0,0-5.61-5.61Z" style="fill:#e0e0e0"></path><path d="M236.28,349.14H55.53a5.87,5.87,0,0,1-5.86-5.86V80a5.87,5.87,0,0,1,5.86-5.86H236.28A5.87,5.87,0,0,1,242.14,80V343.28A5.87,5.87,0,0,1,236.28,349.14ZM55.53,74.4A5.61,5.61,0,0,0,49.92,80V343.28a5.61,5.61,0,0,0,5.61,5.61H236.28a5.61,5.61,0,0,0,5.61-5.61V80a5.61,5.61,0,0,0-5.61-5.61Z" style="fill:#e0e0e0"></path><rect x="0.79" y="410.21" width="499.21" height="0.25" style="fill:#e0e0e0"></rect><polygon points="134.36 157.18 79.93 271.3 25.43 157.18 134.36 157.18" style="fill:#f0f0f0"></polygon><rect x="153.18" y="155.6" width="73.08" height="117.28" style="fill:#f0f0f0"></rect><ellipse cx="302.67" cy="225.31" rx="52.6" ry="71.94" style="fill:#f0f0f0"></ellipse><polygon points="476.79 240.92 417.59 131.21 358.33 240.92 476.79 240.92" style="fill:#f0f0f0"></polygon><path d="M63.38,139.58s6.38-11.15,12.54-10.24,10.21,5,16.16,2.2,9.88-14,20.13-11.85,9.77,13.86,15.28,14.17,8-6.63,13.68-5.43S149,139.58,149,139.58Z" style="fill:#f5f5f5"></path><path d="M207.21,67.89s6.38-11.15,12.53-10.25,10.21,5,16.17,2.21S245.79,45.89,256,48s9.78,13.86,15.29,14.17,8-6.64,13.68-5.43,7.79,11.15,7.79,11.15Z" style="fill:#f5f5f5"></path><path d="M402.75,116.76c-1.21-13.13-9.72-19.19-17.25-19.19-12,0-16.09,10.74-24.13,13.15s-11.45-3.72-18.49-2.42c-5.69,1-9.15,7.26-10.26,8.83Z" style="fill:#f5f5f5"></path><path d="M134.71,414.17s-16.43-22.38-9.34-26.72,15.17,20.17,15.17,20.17,2.5-16,10.5-15c11.1,1.39-2,21.8-2,21.8Z" style="fill:#f5f5f5"></path><path d="M340.42,414.17s-16.42-22.38-9.33-26.72,15.17,20.17,15.17,20.17,2.5-16,10.5-15c11.09,1.39-2,21.8-2,21.8Z" style="fill:#f5f5f5"></path></g><g id="freepik--Shadow--inject-90"><ellipse cx="251.39" cy="450.66" rx="211.7" ry="7.33" style="fill:#f5f5f5"></ellipse></g><g id="freepik--character-4--inject-90"><path d="M407.81,184.38c-1.33,7.62-3,15.1-4.71,22.6s-3.72,15-6,22.41c-1.14,3.73-2.3,7.46-3.75,11.26l-.55,1.42c-.08.22-.17.45-.26.67s-.22.54-.36.81c-.24.53-.45.94-.66,1.4l-.65,1.33c-.86,1.75-1.77,3.45-2.67,5.15q-1.89,3.56-3.85,7.07c-2.43,4.38-5,8.69-7.67,12.93A3.16,3.16,0,0,1,371,269h0c1.91-7.47,4.22-14.79,6.57-22l1.77-5.4.43-1.32c.13-.42.29-.89.38-1.25l.73-2.51c1-3.43,1.92-7,2.76-10.67,1.7-7.28,3.3-14.67,4.88-22.07s3.15-14.83,4.82-22.17v0a7.39,7.39,0,0,1,14.48,2.91Z" style="fill:#ffb573"></path><path d="M392.56,242.74c-.11.27-.22.54-.36.81-.24.53-.45.94-.66,1.4l-.65,1.33c-.86,1.75-1.77,3.45-2.67,5.15q-1.89,3.56-3.85,7.07l7.09-49.28Z" style="opacity:0.2"></path><path d="M376.31,269.91l-5.2-1.19a54.62,54.62,0,0,0-2.71,14.61c-.12,3.22,4.68,7.33,4.68,7.33s1.44,4,2.57,2.9-1.12-6.57-1.1-7.79c0-3.8.05-7.64.41-8.12s-.07,4.76,1.42,6.08.86-5.35,1.65-7.51S377.56,270.27,376.31,269.91Z" style="fill:#ffb573"></path><path d="M372.65,290.12a14,14,0,0,1-1.52-7.46c0-.21.35-.22.33,0a13.65,13.65,0,0,0,1.47,7.29c.09.19-.18.37-.28.18Z" style="opacity:0.2"></path><path d="M370.33,284a8.54,8.54,0,0,0,.75,3.79c.09.2-.23.29-.31.1A8.83,8.83,0,0,1,370,284c0-.21.34-.22.33,0Z" style="opacity:0.2"></path><path d="M390.77,438.71l8.27.07c.4-26.4,11.45-63.35,10.45-100.95.61-2.72,1.2-5.38,1.75-8,1.21-5.68,2.3-11.08,3.26-16.15,6.3-33.14,7.58-52.91,7.58-52.91L388.45,259s-6.38,46-4,79.29C382.85,362.32,387.12,410.12,390.77,438.71Z" style="fill:#ffb573"></path><path d="M414.09,315.87c-.44,2.25-.89,4.56-1.38,6.94-2.27-5.33-3.13-12.8-3.31-20.08a170.13,170.13,0,0,1,1.31-24v0c.42,6.69,1,14.83,1.87,23.52C413,306.71,413.51,311.28,414.09,315.87Z" style="opacity:0.2"></path><path d="M439.77,440.91l-7.37,1.66C430.78,415.74,419,363,417.65,339c-6.44-33.3-7.79-77.5-7.79-77.5l39.9,8.07s.4,21.75-4.52,69.19C450.81,376.36,442.45,416.26,439.77,440.91Z" style="fill:#ffb573"></path><path d="M390.77,438.71a6.08,6.08,0,0,1-4.13,6.4c-2.67.94-9.52,3.25-10.91,3.72s-1.72,1.37-1.14,1.83,24.35,0,24.35,0a4.14,4.14,0,0,0,1-4.18,55.6,55.6,0,0,1-.92-7.7Z" style="fill:#ffb573"></path><path d="M439.76,439.93s0,5.84.4,7a4.89,4.89,0,0,1-.44,4.47h-13.6s-.73-1.32,1.18-3.11,4.51-4.31,4.69-5.84a40.56,40.56,0,0,0-.06-5.82Z" style="fill:#ffb573"></path><path d="M450.28,263.92c.47,8.6-62.39,5.67-62.39,5.67s3.68-88.59,8.36-92.47,14.85-3.55,14.85-3.55,24.54-.39,27.74,2.81c1.83,1.83,4.86,21.78,7.37,43.38.31,2.61.6,5.25.89,7.88C448.56,241.17,449.77,254.59,450.28,263.92Z" style="fill:#ffb573"></path><g style="opacity:0.2"><path d="M414.26,182.8c-1.76,0-2.79-1.69-3.06-2.21l-8.32.1a.26.26,0,0,1-.25-.24.25.25,0,0,1,.25-.25l8.46-.11a.28.28,0,0,1,.23.15c.05.12,1.27,2.8,3.67,1.87a.25.25,0,1,1,.18.46A3.27,3.27,0,0,1,414.26,182.8Z"></path></g><g style="opacity:0.2"><path d="M417.11,180.59a.24.24,0,0,1-.24-.24.25.25,0,0,1,.24-.26l8.06-.26h0a.25.25,0,0,1,0,.49l-8.07.27Z"></path></g><path d="M447.1,227.64l-10-25.87,9.1,17.87,0,.12C446.52,222.37,446.81,225,447.1,227.64Z" style="opacity:0.2"></path><g style="opacity:0.2"><path d="M403.44,201.05a.72.72,0,1,1-.72-.73A.72.72,0,0,1,403.44,201.05Z"></path></g><g style="opacity:0.2"><path d="M427.76,200.14a.72.72,0,1,1-.72-.72A.72.72,0,0,1,427.76,200.14Z"></path></g><g style="opacity:0.2"><path d="M415.65,244.53c0,.69-.28,1.25-.63,1.25s-.64-.56-.64-1.25.29-1.24.64-1.24S415.65,243.85,415.65,244.53Z"></path></g><path d="M449.77,302.29c-1,.25-2.08.45-3.1.63l-.51.09c-.9.17-1.79.31-2.67.41l-.5.07c-10.16,1.25-19.6,0-30.4-1.2,0,0-1.2.22-3.18.44-5.53.61-17.14,1.24-25.48-3,1.29-16.64,2-33.54,4.48-41.32,15.42,3,34,3.77,54.61,2.14l.5,0,2.66-.24.5,0,3.6-.36C450.79,260.09,452.72,295.57,449.77,302.29Z" style="fill:#407BFF"></path><path d="M443.49,303.42l-.5.07a349.24,349.24,0,0,0,0-42.89l.5,0A346.71,346.71,0,0,1,443.49,303.42Z" style="fill:#fff"></path><path d="M446.67,302.92l-.51.09a343.64,343.64,0,0,0,0-42.69l.5,0A348.28,348.28,0,0,1,446.67,302.92Z" style="fill:#fff"></path><path d="M412.59,302.29s-1.21.22-3.19.44a170.13,170.13,0,0,1,1.31-24v0C411.14,285.46,411.75,293.6,412.59,302.29Z" style="opacity:0.2"></path><path d="M399.68,142a7,7,0,0,0,0,7.65l3-7.8Z" style="fill:#263238"></path><path d="M409.08,168.53h0l0,.08.8,3.89a12.76,12.76,0,0,1-.1,2.32,13.63,13.63,0,0,1-.38,1.84c-.91,1.1-1.46,3.7,1.54,3.88,3.77.23,11-4.55,11.37-6.21-1.46-5.26-2.61-11.72-2-16.64l-4.57,4.42Z" style="fill:#ffb573"></path><g style="opacity:0.2"><path d="M409.11,168.62l.8,3.89c2.42-.95,5-3.14,5.73-5.62.5-1.79-.23-3.54-.95-3.67Z"></path></g><path d="M400,160.07c.18.84.38,1.68.61,2.5,2,7.28,10.76,8.42,16.54,3.46,0,0,0,0,0,0a12.75,12.75,0,0,0,1.47-1.47c3.74-4.39,3.06-8,3-16a10.94,10.94,0,0,0-15.83-9.8C398.87,142.16,398.21,151.61,400,160.07Z" style="fill:#ffb573"></path><path d="M423.67,151.47s-4.71,1.29-4.71,5.1c0,0-3.15-.79-2.5-5.43s2.2-6.73-1.69-7.56c0,0-1.22,2.69-5.93,2.39,0,0,2.6-1.32,2-3.22a11,11,0,0,1-10.66,2.85s3.06-1.13,3.4-3.5c0,0-4.87,3.45-8.84-2.09,0,0,3.5.65,7.12-3.49,4.51-5.15,17.66-6.3,19.72,2a5.61,5.61,0,0,1,3.73,3.67C426.5,146.27,423.67,151.47,423.67,151.47Z" style="fill:#263238"></path><path d="M405.39,160.12l-.2-.07a.23.23,0,0,1,.18-.43,3.35,3.35,0,0,0,4.43-2,.23.23,0,0,1,.31-.12.23.23,0,0,1,.11.31A3.81,3.81,0,0,1,405.39,160.12Z" style="fill:#263238"></path><path d="M425.41,153.64a7.64,7.64,0,0,1-3.32,4.78c-2.26,1.43-4.16-.4-4.17-2.94,0-2.28,1.15-5.77,3.72-6.18s4.27,1.91,3.77,4.34" style="fill:#ffb573"></path><path d="M410.4,151.37c.05.63-.25,1.16-.66,1.19s-.78-.45-.83-1.08.25-1.17.66-1.2.79.46.83,1.09" style="fill:#263238"></path><path d="M403.49,151.78c.05.63-.25,1.17-.66,1.2s-.78-.46-.83-1.09.26-1.16.67-1.19.78.45.82,1.08" style="fill:#263238"></path><path d="M400.41,149.65a.33.33,0,0,0,.27-.19,1.62,1.62,0,0,1,.92-.92,2,2,0,0,1,1.31.1.31.31,0,0,0,.42-.14.32.32,0,0,0-.14-.43,2.52,2.52,0,0,0-1.8-.13,2.25,2.25,0,0,0-1.29,1.25.33.33,0,0,0,.15.43Z" style="fill:#263238"></path><path d="M411.62,149.12a.44.44,0,0,0,.15-.05.34.34,0,0,0,.12-.47,2.7,2.7,0,0,0-1.55-1.19,2.44,2.44,0,0,0-1.92.37.35.35,0,0,0-.11.48.34.34,0,0,0,.47.11,1.79,1.79,0,0,1,1.39-.29,2.06,2.06,0,0,1,1.13.87A.35.35,0,0,0,411.62,149.12Z" style="fill:#263238"></path><path d="M405.18,151.48a7,7,0,0,1-1.85,3.57c-1.54,1.49,1.77,2.48,1.77,2.48Z" style="fill:#ed893e"></path><path d="M442.21,179.42c3.48,6.74,6.79,13.42,10,20.28,1.6,3.42,3.16,6.87,4.65,10.41.75,1.76,1.47,3.57,2.18,5.41.34.94.69,1.83,1,2.82.17.49.29,1,.43,1.49l.21.75c.08.31.22.9.29,1.25l.14.95.08.82.13,1.54c.07,1,.12,2,.16,2.93.09,1.92.14,3.81.19,5.7.08,3.77.12,7.51.15,11.25q.07,11.22,0,22.41a3.3,3.3,0,0,1-6.57.42h0c-1-7.36-2-14.73-3.14-22.06-.55-3.66-1.11-7.33-1.72-10.95-.3-1.81-.61-3.62-.95-5.39l-.52-2.6-.28-1.21-.14-.55-.13-.42c0-.1,0,0-.08-.1L448,224c-.16-.38-.34-.75-.48-1.14-.3-.76-.67-1.58-1-2.38-.68-1.6-1.39-3.23-2.16-4.86-1.5-3.25-3.12-6.52-4.78-9.77-3.31-6.5-6.82-13-10.38-19.37l0-.05a7.39,7.39,0,0,1,12.89-7.22A2.39,2.39,0,0,1,442.21,179.42Z" style="fill:#ffb573"></path><path d="M456.33,267.07l5.4-.46a55.9,55.9,0,0,1,.76,14.76c-.28,3.21-5.56,6.69-5.56,6.69s-1.93,3.77-2.91,2.56,1.93-6.38,2.07-7.6c.43-3.77.9-7.59.6-8.11s-.52,4.73-2.17,5.86-.18-5.42-.69-7.66S455,267.27,456.33,267.07Z" style="fill:#ffb573"></path><path d="M457.43,287.57a14,14,0,0,0,2.44-7.21c0-.21-.32-.26-.33-.05a13.72,13.72,0,0,1-2.36,7.06c-.12.17.13.38.25.2Z" style="opacity:0.2"></path><path d="M460.5,281.75a8.54,8.54,0,0,1-1.22,3.67c-.11.18.19.31.3.13a8.92,8.92,0,0,0,1.25-3.75c0-.21-.31-.26-.33-.05Z" style="opacity:0.2"></path><path d="M387.84,260.56a35.48,35.48,0,0,1,.8-6.79c1,.68,29,7.75,60.94,0a33.12,33.12,0,0,1,1,8.45S415.84,268.25,387.84,260.56Z" style="fill:#407BFF"></path><path d="M387.84,260.56a35.48,35.48,0,0,1,.8-6.79c1,.68,29,7.75,60.94,0a33.12,33.12,0,0,1,1,8.45S415.84,268.25,387.84,260.56Z" style="fill:#fff;opacity:0.30000000000000004"></path></g><g id="freepik--character-3--inject-90"><path d="M351.64,230.89c0,.37-.05.75-.1,1.14a2.54,2.54,0,0,1-.06.37l-.06.31c-.05.19-.08.42-.12.58-.34,1.27-.65,2.11-1,3-1.28,3.56-2.72,6.74-4.14,10-2.92,6.42-6,12.7-9.39,18.87l-7.74-3c1.51-6.8,3.31-13.53,5-20.19.89-3.29,1.72-6.67,2.43-9.77.09-.43.19-.89.26-1.29,0,.05-.05-.08-.11-.26-.13-.42-.35-1.08-.59-1.74l-.46-1.22c-.12-.29-.24-.6-.37-.89-.62-1.5-1.3-3-2-4.57s-1.39-3-2.09-4.42l-4.48-9.15c-3-6.12-6.14-12.29-9.09-18.41l14.87-7.68c3.38,6.22,6.43,12.48,9.35,18.92q2.19,4.81,4.2,9.77c1.36,3.32,2.63,6.66,3.79,10.27.29.9.58,1.84.85,2.83a30.49,30.49,0,0,1,.74,3.27,18.8,18.8,0,0,1,.27,2.34C351.65,230.32,351.65,230.56,351.64,230.89Z" style="fill:#ffc3bd"></path><path d="M335.51,236.46c2.62,4.46,1.92,27.54,1.92,27.54l-.64,1.19L334.07,242S335.19,237.74,335.51,236.46Z" style="opacity:0.2"></path><path d="M283.47,197.73c-4.45,5.28-9.1,10.53-13.65,15.72-2.26,2.61-4.56,5.19-6.72,7.79-1.1,1.29-2.17,2.57-3.17,3.84-.5.63-1,1.25-1.42,1.85s-.84,1.17-1.09,1.55c-.11.14-.19.32-.11,0l.11-.47,0-.19,0-.24a6.62,6.62,0,0,0,0-.77c0-.18,0-.13,0-.13h0v.08a6.09,6.09,0,0,0,.16,1.42,36.1,36.1,0,0,0,1.17,4.22c1,3,2.31,6.1,3.67,9.17s2.87,6.12,4.45,9.07c.78,1.48,1.61,2.92,2.44,4.29.41.68.83,1.33,1.23,1.91l.3.43.26.36.2.27c.05.08,0,.06,0,.11l-4.11,7.2c-.36-.19-.79-.44-1.08-.63l-.81-.58-.69-.55-.61-.54c-.8-.71-1.5-1.41-2.17-2.12-1.35-1.4-2.55-2.84-3.73-4.28a110.63,110.63,0,0,1-6.49-9,93.72,93.72,0,0,1-5.62-9.8,43.19,43.19,0,0,1-2.35-5.73,21.72,21.72,0,0,1-.89-3.74l-.06-.6,0-.31,0-.15c0-.05,0-.06,0-.3a10.28,10.28,0,0,1,.06-1.1c0-.21,0-.28.05-.4l.06-.35a11,11,0,0,1,.28-1.11,17.68,17.68,0,0,1,.95-2.42c.57-1.18,1.1-2.09,1.63-3s1.06-1.7,1.58-2.5c1.05-1.6,2.11-3.11,3.17-4.61,2.16-3,4.32-5.83,6.57-8.63,4.46-5.62,9-11,13.95-16.24Z" style="fill:#ffc3bd"></path><path d="M306.16,348.27c-3.75-25.58-9.26-63.86-5.19-75.62l33-1.18s-2.87,56-3.63,79.62c-.8,24.55-7.15,91.48-7.15,91.48h-6.44s-11.61-65.1-10.6-94.3" style="fill:#ffc3bd"></path><path d="M323.57,438.64a6.67,6.67,0,0,0,4.48,6.47c2.67.94,9.52,3.25,10.91,3.72s1.73,1.37,1.14,1.83-16.38.15-22,0a3,3,0,0,1-2.85-4.08l0-.08a17.06,17.06,0,0,0,1.15-5.83Z" style="fill:#ffc3bd"></path><path d="M272.84,348.25c-2.3-25.59-5.64-63.88-.91-75.64L305,271.42s-6,56-8.16,79.65c-2.18,24.55-11.62,87.57-11.62,87.57l-7.72,1.69s-7.35-62.87-4.68-92.08" style="fill:#ffc3bd"></path><path d="M277.52,439.93s0,5.84-.4,7a4.89,4.89,0,0,0,.44,4.47h13.6s.73-1.32-1.18-3.11-4.51-4.31-4.69-5.84a40.56,40.56,0,0,1,.06-5.82Z" style="fill:#ffc3bd"></path><path d="M334,258.43c-6.07,14.54-59,15.76-63,2.76-3.47-11.2-.06-31.87.65-41a23.7,23.7,0,0,0,.09-3.43c0-.29-.06-.61-.1-1-.11-1.1-.3-2.47-.5-4-1-7.54-2.71-19.21-1.15-23.31,3.84-10.08,27.08-12.91,27.08-12.91s4.48-1,14.17,0c7.68.81,18.82.8,21.9,8.11s.42,29.3.18,36.88S338.5,247.6,334,258.43Z" style="fill:#ffc3bd"></path><path d="M335.6,227.76c-.12-.29-.24-.6-.37-.89-.62-1.5-1.3-3-2-4.57-.34-2.55-2.42-18.85-1.84-26.1Z" style="opacity:0.2"></path><path d="M282,200.7,271.6,215.79c-.11-1.1-.3-2.47-.5-4Z" style="opacity:0.2"></path><g style="opacity:0.2"><path d="M294.79,206.27a.72.72,0,1,1-.72-.72A.72.72,0,0,1,294.79,206.27Z"></path></g><g style="opacity:0.2"><path d="M319.11,205.37a.72.72,0,1,1-.72-.72A.72.72,0,0,1,319.11,205.37Z"></path></g><g style="opacity:0.2"><path d="M307,249.76c0,.69-.29,1.24-.64,1.24s-.64-.55-.64-1.24.29-1.24.64-1.24S307,249.07,307,249.76Z"></path></g><g style="opacity:0.2"><path d="M304.5,186.22c-1.76,0-2.79-1.69-3.06-2.21l-8.31.1c-.16,0-.25-.11-.25-.24a.23.23,0,0,1,.24-.25l8.47-.11a.29.29,0,0,1,.23.15c.05.12,1.26,2.8,3.66,1.87a.25.25,0,0,1,.32.14.24.24,0,0,1-.14.32A3.23,3.23,0,0,1,304.5,186.22Z"></path></g><g style="opacity:0.2"><path d="M307.36,184a.25.25,0,0,1,0-.5l8.06-.26h0a.25.25,0,0,1,.25.24.25.25,0,0,1-.24.25l-8.07.27Z"></path></g><path d="M304.84,137.43a14.53,14.53,0,0,0-11.09,3.43c-2,1.74-3.5,4-2.79,6.73A157,157,0,0,0,297,164l18.86-15.52s.15-5.52-3-8.53C311.28,138.41,307.8,137.72,304.84,137.43Z" style="fill:#263238"></path><path d="M289.61,144.19s-1.3,3.55.59,4.37S293,145,293,145s6.32-9,18.92-4.6l3.38,4.08s.92,2.08,2.16,1.5S316,142.4,316,142.4s3.17-.9,2.5-2.21-3.2-.52-3.2-.52,4.06-1.62,3.29-2.6-4.77,0-4.77,0,2.82-2,1.08-3.28-5.55.82-5.55.82,1.94-1.81,0-3-4.51,2-4.51,2-1.28-2.23-3.08-2.22-.82,2.71-.82,2.71a8.8,8.8,0,0,0-4.11-1c-1.72.21-.42,1.94-.42,1.94s-3.48-1.49-4.5-.5,1,2.83,1,2.83c-1.2.16-4.61-.89-4.95.87s2.8,2,2.8,2-3.3.65-3.64,2.8C286.94,144.31,289.61,144.19,289.61,144.19Z" style="fill:#263238"></path><path d="M308.26,169.6h0a.24.24,0,0,0,0,.08l-.49,3.83a12.81,12.81,0,0,0,.27,2.25,13.65,13.65,0,0,0,.51,1.75c1,1,1.69,3.48-1.2,3.88-3.64.51-11-3.92-11.5-5.5,1-5.21,1.65-11.23.74-15.95l4.76,3.94Z" style="fill:#ffc3bd"></path><g style="opacity:0.2"><path d="M308.25,169.68l-.49,3.83c-2.42-.73-5.11-2.66-6-5-.62-1.7,0-3.45.65-3.63Z"></path></g><path d="M316.44,160.7c-.1.83-.24,1.66-.4,2.47-1.37,7.21-9.8,9-15.78,4.6l0,0a12.16,12.16,0,0,1-1.52-1.31c-3.83-3.84-3.59-7.24-4.05-14.48,0-.27,0-.53-.05-.8a11.06,11.06,0,0,1,.4-3.8,10.61,10.61,0,0,1,14.22-6.9C316.18,143.25,317.54,152.37,316.44,160.7Z" style="fill:#ffc3bd"></path><path d="M295,147.36l5.07.87s2.08-.25,2.28-1.72-1.35-2.63-1.35-2.63a19.48,19.48,0,0,1,8.7-.66c4.06.86,5.1,2.6,5.1,2.6a7.93,7.93,0,0,0-4.48-6c-4.07-1.88-12.77-1.39-14.7,1.73A6.23,6.23,0,0,0,295,147.36Z" style="fill:#263238"></path><path d="M301.51,155.15l-4.58.63L294.67,152c0-.27,0-.53-.05-.8a11.06,11.06,0,0,1,.4-3.8c1.33-.28,5.68-1,5,1.3C299.22,151.41,301.51,155.15,301.51,155.15Z" style="opacity:0.2"></path><path d="M311.55,162.69l.21,0a.22.22,0,0,0,.17-.28.23.23,0,0,0-.28-.17,3.36,3.36,0,0,1-4.06-2.66.23.23,0,1,0-.44.12A3.82,3.82,0,0,0,311.55,162.69Z" style="fill:#263238"></path><path d="M291.31,156.38a7.43,7.43,0,0,0,3.58,4.39c2.3,1.22,4-.7,3.82-3.16-.16-2.21-1.55-5.51-4.08-5.71s-4,2.17-3.32,4.48" style="fill:#ffc3bd"></path><path d="M306.76,154.79c0,.62.33,1.11.73,1.11s.72-.5.72-1.12-.33-1.11-.73-1.11-.73.51-.72,1.12" style="fill:#263238"></path><path d="M313.49,154.67c0,.61.33,1.11.73,1.11s.73-.5.72-1.12-.33-1.11-.73-1.11-.72.51-.72,1.12" style="fill:#263238"></path><path d="M315.73,152a.3.3,0,0,1-.27-.16,1.63,1.63,0,0,0-1-.83,1.87,1.87,0,0,0-1.26.2.31.31,0,0,1-.32-.53,2.47,2.47,0,0,1,1.74-.27,2.17,2.17,0,0,1,1.34,1.12.3.3,0,0,1-.11.42A.44.44,0,0,1,315.73,152Z" style="fill:#263238"></path><path d="M304.92,152.28a.35.35,0,0,1-.14,0,.31.31,0,0,1-.14-.41,2.48,2.48,0,0,1,1.3-1.17,2.2,2.2,0,0,1,1.75.2.31.31,0,0,1-.29.55,1.59,1.59,0,0,0-1.25-.17,1.81,1.81,0,0,0-.95.86A.32.32,0,0,1,304.92,152.28Z" style="fill:#263238"></path><path d="M310.79,153.88a19.38,19.38,0,0,0,3.06,4.8c.19.2-2.52,1.07-2.52,1.07Z" style="fill:#ed847e"></path><path d="M308.07,172.72h0Z"></path><path d="M334.38,320.59c-4.49,7-20.57,5.54-28.65,4.29-2.86-.43-4.71-.84-4.71-.84s-32.31,6.32-34.08-7.23c-1.34-10.26-.18-33.32,1.59-49h0c.47-4.21,1-7.88,1.52-10.64,48,14.53,64.68-1.36,64.68-1.36.17,2.78.28,6,.36,9.56C335.53,287.36,334.38,320.59,334.38,320.59Z" style="fill:#407BFF"></path><path d="M335.09,265.34c-1.93,1.64-8.4,5.82-24.78,6.71-20.49,1.14-41.78-4.26-41.78-4.26h0c.47-4.21,1-7.88,1.52-10.64,48,14.53,64.68-1.36,64.68-1.36C334.9,258.56,335,261.8,335.09,265.34Z" style="fill:#fff;opacity:0.30000000000000004"></path><path d="M305.73,324.88c-2.86-.43-4.71-.84-4.71-.84s3.47-26.37,4-41.55C305,282.49,306.67,311.79,305.73,324.88Z" style="opacity:0.2"></path><path d="M269.56,258.57s8.32,3.76,8.67,5.65-2.18,1.17-2.18,1.17,2.72,1,2.45,2.26c-.34,1.54-3,.76-3,.76s2.19.9,1.88,2S274,271,274,271s1.42.94.78,1.6-6.34-.4-7.93-2.12.25-10.18,1.08-12-.22-3.72,2.75-6.09l-1.14,6.22Z" style="fill:#ffc3bd"></path><path d="M275.91,265.53h0l-4.67-2a.14.14,0,0,1-.06-.18.13.13,0,0,1,.17-.09l4.66,1.95a.15.15,0,0,1,.06.19A.12.12,0,0,1,275.91,265.53Z" style="opacity:0.2"></path><path d="M275.25,268.52h0l-4.63-1.5a.15.15,0,0,1,.09-.28l4.63,1.5a.15.15,0,0,1-.08.28Z" style="opacity:0.2"></path><path d="M273.72,271.06l-3.48-1a.15.15,0,0,1-.08-.18c0-.08.1-.13.16-.11l3.48,1a.14.14,0,0,1,.08.18C273.85,271,273.78,271.08,273.72,271.06Z" style="opacity:0.2"></path><path d="M334.91,259s-8.6,3.06-9.1,4.92,2.08,1.34,2.08,1.34-2.8.76-2.63,2.06c.21,1.56,2.91,1,2.91,1s-2.26.72-2,1.87,3.32.79,3.32.79-1.49.82-.91,1.54,6.35.11,8.08-1.47.58-10.17-.1-12,.52-3.69-2.24-6.29l.62,6.29Z" style="fill:#ffc3bd"></path><path d="M328,265.46h0l4.81-1.57a.14.14,0,0,0,.07-.18.13.13,0,0,0-.15-.11L328,265.17a.14.14,0,0,0-.08.18A.14.14,0,0,0,328,265.46Z" style="opacity:0.2"></path><path d="M328.43,268.49h0l4.74-1.12c.07,0,.1-.09.09-.17a.14.14,0,0,0-.16-.11l-4.74,1.11a.15.15,0,0,0-.08.18C328.3,268.45,328.37,268.51,328.43,268.49Z" style="opacity:0.2"></path><path d="M329.75,271.14l3.55-.72a.14.14,0,0,0,.09-.17.14.14,0,0,0-.15-.12l-3.55.72a.13.13,0,0,0-.09.17C329.62,271.1,329.68,271.16,329.75,271.14Z" style="opacity:0.2"></path></g><g id="freepik--character-2--inject-90"><path d="M239.53,270.29a3.66,3.66,0,0,1-4.45-1.72c-1.74-3.22-3.35-6.45-5-9.71s-3.2-6.53-4.73-9.84c-.3-.65-.61-1.31-.9-2-1.22-2.67-2.4-5.36-3.54-8.09A105.54,105.54,0,0,1,217,228.24c-.1-.34-.19-.68-.28-1-.18-.68-.33-1.38-.48-2l-.72-2.6-1.43-5.21c-.92-3.48-1.86-7-2.7-10.45-1.74-7-3.31-14-4.6-21a7.39,7.39,0,0,1,14.47-3c1.64,7.06,3,14.18,4.18,21.32.63,3.57,1.15,7.16,1.7,10.74l.77,5.38.37,2.69c.1.85.2,1.5.35,2.27.63,3.09,1.69,6.5,2.7,9.85s2.2,6.74,3.33,10.13l3.51,10.16,3.59,10.14h0A3.66,3.66,0,0,1,239.53,270.29Z" style="fill:#b55b52"></path><path d="M236.49,266.93l5.46-.49a49.94,49.94,0,0,1,2.76,13.71c.2,3.22-4.5,7.44-4.5,7.44s-1.34,4-2.5,3,1-6.6.92-7.82c-.13-3.8-.24-7.64-.61-8.11s.19,4.76-1.28,6.12-1-5.33-1.82-7.47S235.25,267.32,236.49,266.93Z" style="fill:#b55b52"></path><path d="M240.63,287a14,14,0,0,0,1.34-7.49c0-.21-.35-.21-.33,0a13.61,13.61,0,0,1-1.29,7.32c-.09.19.19.36.28.17Z" style="opacity:0.2"></path><path d="M242.8,280.83a8.58,8.58,0,0,1-.66,3.81c-.08.19.24.28.32.08a8.79,8.79,0,0,0,.67-3.89c0-.21-.34-.21-.33,0Z" style="opacity:0.2"></path><path d="M175.81,188.37l-13.87,18.06c-2.29,3-4.6,6-6.81,9s-4.43,6-6.28,9c-.45.73-.9,1.44-1.25,2.08-.17.31-.36.63-.45.84l-.13.25,0,0s-.05.1,0-.2c.11-.84,0-.92,0-.88a1.59,1.59,0,0,0,.08.54,15.45,15.45,0,0,0,.69,2,84.3,84.3,0,0,0,4.89,9.49c1.87,3.22,3.84,6.45,5.86,9.66s4.08,6.44,6.1,9.63l-5.69,4.6a200,200,0,0,1-15.44-17.74c-1.21-1.58-2.39-3.19-3.54-4.88s-2.27-3.43-3.34-5.4a27.36,27.36,0,0,1-1.53-3.32,14.91,14.91,0,0,1-.66-2.24,9.71,9.71,0,0,1-.13-3.74,7.3,7.3,0,0,1,.19-.89l.18-.65c.13-.49.25-.76.37-1.1.25-.69.49-1.23.73-1.79.49-1.08,1-2.05,1.48-3,2-3.71,4.09-7.05,6.25-10.35s4.36-6.52,6.63-9.68c4.52-6.35,9.19-12.47,14.13-18.52Z" style="fill:#b55b52"></path><path d="M224.47,247.05c-1.22-2.67-2.4-5.36-3.54-8.09A105.54,105.54,0,0,1,217,228.24c-.1-.34-.19-.68-.28-1L219.4,194Z" style="opacity:0.2"></path><path d="M222,439.38l-8.27.07c-1-26.39-13-63.33-12.92-100.91q-1-4.08-2-8c-1.35-5.68-2.57-11.08-3.65-16.15-7.11-33.13-8.88-52.89-8.88-52.89h36s5.08,44.2,3.51,77.5C228.06,363,225,410.8,222,439.38Z" style="fill:#b55b52"></path><path d="M198.89,330.57h0c-1.35-5.68-2.57-11.08-3.65-16.15l4.46-44.91S205.4,304,198.89,330.57Z" style="opacity:0.2"></path><path d="M202,297.7c-1.18-.11-2.35-.25-3.52-.42,0,0-.56.15-1.56.37l2.8-28.15A208.74,208.74,0,0,1,202,297.7Z" style="opacity:0.2"></path><path d="M171.4,440.91l7.37,1.66C180.39,415.74,192.22,363,193.52,339c6.44-33.3,7.8-77.5,7.8-77.5l-39.91,8.07s-.4,21.75,4.52,69.19C160.37,376.36,168.72,416.26,171.4,440.91Z" style="fill:#b55b52"></path><path d="M222,439.38a6.05,6.05,0,0,0,4.13,6.39c2.67,1,9.52,3.26,10.91,3.73s1.72,1.36,1.14,1.83-24.35,0-24.35,0a4.17,4.17,0,0,1-1-4.18,54.71,54.71,0,0,0,.93-7.7Z" style="fill:#b55b52"></path><path d="M171.41,439.93s0,5.84-.4,7a4.89,4.89,0,0,0,.44,4.47h13.6s.74-1.32-1.18-3.11-4.51-4.31-4.69-5.84a40.56,40.56,0,0,1,.06-5.82Z" style="fill:#b55b52"></path><path d="M222,257.14c-32.64,11-60.59,3.13-60.59,3.13s.66-28.21.82-49.75v-.08c0-1.54,0-3,0-4.48s0-2.66,0-3.91c0-6.9-.07-12.28-.28-14.51-.88-9.19,6.3-12.56,12-13.08s16.71-1.38,16.71-1.38,18-.31,23.08,1.38,8.06,6.52,6.78,15.32S222,257.14,222,257.14Z" style="fill:#b55b52"></path><g style="opacity:0.2"><path d="M182.65,202.66a.72.72,0,1,1-.72-.72A.73.73,0,0,1,182.65,202.66Z"></path></g><g style="opacity:0.2"><path d="M207,201.76a.72.72,0,1,1-.72-.72A.72.72,0,0,1,207,201.76Z"></path></g><g style="opacity:0.2"><path d="M194.86,246.15c0,.69-.28,1.25-.63,1.25s-.64-.56-.64-1.25.28-1.24.64-1.24S194.86,245.47,194.86,246.15Z"></path></g><g style="opacity:0.2"><path d="M193.47,184.42c-1.77,0-2.79-1.69-3.07-2.21l-8.31.1a.25.25,0,0,1-.25-.25.24.24,0,0,1,.24-.24l8.47-.11a.28.28,0,0,1,.23.15c.05.12,1.27,2.8,3.67,1.87a.25.25,0,0,1,.17.46A3.18,3.18,0,0,1,193.47,184.42Z"></path></g><g style="opacity:0.2"><path d="M196.32,182.21a.25.25,0,0,1,0-.5l8.07-.26h0a.25.25,0,0,1,0,.49l-8.06.27Z"></path></g><path d="M192.87,132.37s10.17-1.78,13.23.61c2.88,2.23-.32,3.88-.32,3.88s4.68,1.79,4.6,4.46-3.28,1.79-3.28,1.79,5.33,3.22,2.7,5.54-5.26-1.56-5.26-1.56Z" style="fill:#263238"></path><path d="M194.62,132.49a15,15,0,0,0-11.48,3.25c-2.07,1.74-3.7,4.06-3,6.85,1.56,6.51,5.79,17,5.79,17l19.88-14.85s.18-6.3-2.94-9.47C201.22,133.66,197.66,132.87,194.62,132.49Z" style="fill:#263238"></path><path d="M182,136.8a2.66,2.66,0,0,0-3.33-.69c-1.88,1.1.47,1.88.47,1.88s-2.32,2.19-1.2,3.13,3.31-1.64,3.31-1.64Z" style="fill:#263238"></path><path d="M197.53,167.06h0a.94.94,0,0,1,0,.09l-.59,3.92a12.56,12.56,0,0,0,.22,2.31,14.69,14.69,0,0,0,.48,1.82c1,1.05,1.65,3.62-1.33,4-3.75.43-11.26-4-11.68-5.59,1.17-5.33,2-11.85,1.15-16.73l4.8,4.17Z" style="fill:#b55b52"></path><g style="opacity:0.2"><path d="M197.51,167.15l-.59,3.92c-2.47-.82-5.18-2.86-6-5.3-.59-1.77,0-3.55.75-3.72Z"></path></g><path d="M206.16,158.12c-.13.85-.29,1.7-.47,2.53-1.59,7.37-10.3,9-16.33,4.33h0a14.32,14.32,0,0,1-1.54-1.39c-4-4.19-3.48-7.79-3.83-15.81a11,11,0,0,1,15.29-10.63C206.33,140.17,207.49,149.58,206.16,158.12Z" style="fill:#b55b52"></path><path d="M200.77,158.46l.2-.08a.23.23,0,0,0-.21-.42,3.34,3.34,0,0,1-4.52-1.75.23.23,0,0,0-.32-.09.24.24,0,0,0-.1.31A3.82,3.82,0,0,0,200.77,158.46Z" style="fill:#263238"></path><path d="M199.77,136.27c-4.07-2.13-11.76-1.81-14.42,2.28s-1.38,10-1.38,10a3.4,3.4,0,0,1,1.88.5,3.33,3.33,0,0,1,.91.8l0,0a1.37,1.37,0,0,0,2.37-1c-.11-1.84,0-3.6,1-3.66,2.08-.14-.55-3.41.63-4.06,2.8-1.53,10.77-2.49,14.39,2C205.19,143.06,203.84,138.41,199.77,136.27Z" style="fill:#263238"></path><path d="M180.44,153.05a7.62,7.62,0,0,0,3.57,4.6c2.33,1.31,4.13-.62,4-3.15-.1-2.28-1.45-5.71-4-6s-4.16,2.14-3.53,4.53" style="fill:#b55b52"></path><path d="M195.3,150c0,.63.32,1.15.73,1.16s.75-.5.77-1.13-.32-1.15-.73-1.16-.76.5-.77,1.13" style="fill:#263238"></path><path d="M202.22,150c0,.63.31,1.15.73,1.16s.75-.5.77-1.13-.32-1.15-.73-1.16-.76.5-.77,1.13" style="fill:#263238"></path><path d="M205.18,147.73a.32.32,0,0,1-.27-.16,1.64,1.64,0,0,0-1-.88,2,2,0,0,0-1.3.17.31.31,0,0,1-.43-.11.32.32,0,0,1,.11-.44,2.56,2.56,0,0,1,1.79-.23,2.22,2.22,0,0,1,1.36,1.19.31.31,0,0,1-.13.43A.29.29,0,0,1,205.18,147.73Z" style="fill:#263238"></path><path d="M194,147.8a.28.28,0,0,1-.15,0,.35.35,0,0,1-.15-.46,2.8,2.8,0,0,1,1.49-1.27,2.44,2.44,0,0,1,1.94.27.35.35,0,0,1,.14.47.35.35,0,0,1-.47.14,1.78,1.78,0,0,0-1.4-.22,2,2,0,0,0-1.08.93A.33.33,0,0,1,194,147.8Z" style="fill:#263238"></path><path d="M200.52,149.82a7,7,0,0,0,2,3.47c1.61,1.41-1.63,2.57-1.63,2.57Z" style="fill:#a02724"></path><path d="M169,195.76l-6.77,14.76v-.08c0-1.54,0-3,0-4.48Z" style="opacity:0.2"></path><path d="M226.68,294.17c-8.53,3.93-16.69,4.35-24.71,3.53-1.18-.11-2.35-.25-3.52-.42,0,0-.56.15-1.56.37-5.77,1.32-26.11,5.3-35.48-1.55-.24-1.8-.44-3.59-.61-5.37a131.17,131.17,0,0,1,.83-34s36.82,6.29,60.25-2.35c0,0,3.12,22.2,4.36,34.56C226.45,291,226.61,292.8,226.68,294.17Z" style="fill:#407BFF"></path><g style="opacity:0.2"><path d="M188,262.15a219.55,219.55,0,0,1-26.67-1.64l.07-.49c.37.05,37.5,4.9,60.84-2.75l.08.55C212.19,261.15,199.19,262.15,188,262.15Z"></path></g><path d="M226.68,294.17c-8.53,3.93-16.69,4.35-24.71,3.53-1.18-.11-2.35-.25-3.52-.42,0,0-.56.15-1.56.37-5.77,1.32-26.11,5.3-35.48-1.55-.24-1.8-.44-3.59-.61-5.37,5.35,2.2,17.53,5.4,38.67,1.62,0,0,16.17,1.44,26.77-3.44C226.45,291,226.61,292.8,226.68,294.17Z" style="opacity:0.2"></path><path d="M202,297.7c-1-.09-2-.2-2.93-.34.71-7.89,1.21-15.16,1.57-21.05C201.19,281.45,201.86,289.08,202,297.7Z" style="opacity:0.2"></path><path d="M161.33,256.68s7.89,3.34,8.29,4.86-2,.83-2,.83,2.58.9,2.37,1.91c-.24,1.21-2.73.48-2.73.48s2.08.81,1.83,1.69-3.12.27-3.12.27,1.36.81.79,1.31-5.9-.58-7.45-2-.2-8.1.49-9.51-.88-3,1.77-4.73l-.26,4.91Z" style="fill:#b55b52"></path><path d="M167.52,262.48h0l-4.42-1.75a.11.11,0,0,1-.06-.15.12.12,0,0,1,.15-.07l4.41,1.76a.12.12,0,0,1,.07.15A.11.11,0,0,1,167.52,262.48Z" style="opacity:0.2"></path><path d="M167,264.84h0l-4.37-1.39a.11.11,0,0,1-.08-.14.12.12,0,0,1,.15-.08l4.37,1.39a.12.12,0,0,1,.07.15A.12.12,0,0,1,167,264.84Z" style="opacity:0.2"></path><path d="M165.72,266.79l-3.28-1a.11.11,0,0,1-.07-.15.1.1,0,0,1,.14-.07l3.27.95a.11.11,0,0,1,.08.14A.11.11,0,0,1,165.72,266.79Z" style="opacity:0.2"></path></g><g id="freepik--character-1--inject-90"><path d="M86,266c-.18,2.83.2,12.26-.18,16.94-.72,8.9-1.69,20.44-2.46,32-.89,13.39-1.53,26.8-1.21,36.11.82,23.89,2,88.34,2,88.34H76.29S62.5,372.82,60.22,348.6c-1.9-20.08-3-70.43-2.7-82.94Z" style="fill:#ff8b7b"></path><path d="M76.14,438.62s.56,5.47-4.19,7.15c-2.67,1-9.52,3.26-10.91,3.73s-1.72,1.36-1.14,1.83,24.35,0,24.35,0a4.16,4.16,0,0,0,1-4.18,79.34,79.34,0,0,1-1.16-8.53Z" style="fill:#ff8b7b"></path><path d="M89.56,282.93c-.72,8.9-1.69,20.44-2.46,32C82,299.83,86.74,277,86.74,277Z" style="opacity:0.2"></path><path d="M92.24,352.61c5,23.8,15.83,83.36,15.83,83.36l8,4s.3-73.46-3.07-89.07c1.46-3.59-2.45-72.41-3.87-85.2H74.54c1.1,12.46,13.55,67.21,17.7,86.95Z" style="fill:#ff8b7b"></path><path d="M116.1,439.93s0,5.84.4,7a4.89,4.89,0,0,1-.44,4.47h-13.6s-.74-1.32,1.18-3.11,4.51-4.31,4.69-5.84a49.21,49.21,0,0,0-.41-7.33Z" style="fill:#ff8b7b"></path><path d="M67,142.14s-4.82-8.41,2.62-12c0,0-1.49,3.42,3.35,3s15.38-.55,18.19,6.92c0,0,1.91-.57,1.75,3.61s-3.61,7.12-3.61,7.12Z" style="fill:#263238"></path><path d="M77.68,134.65a14.58,14.58,0,0,1,11.09,3.43c2,1.74,3.5,4,2.78,6.73a156.08,156.08,0,0,1-6,16.44L66.66,145.74s-.15-5.53,3-8.54C71.24,135.63,74.71,135,77.68,134.65Z" style="fill:#263238"></path><path d="M74.25,166.82h0a.24.24,0,0,0,0,.08l.48,3.83a10.2,10.2,0,0,1-.11,2.66,2.38,2.38,0,0,1-.67,1.33c-1,1-1.69,3.49,1.2,3.88,3.64.52,11-3.92,11.5-5.49-1-5.21-1.65-11.23-.73-16l-4.77,4Z" style="fill:#ff8b7b"></path><g style="opacity:0.2"><path d="M74.27,166.91l.48,3.83c2.42-.74,5.11-2.66,6-5,.62-1.7,0-3.44-.65-3.63Z"></path></g><path d="M66.07,157.92c.11.84.24,1.66.4,2.48,1.37,7.21,9.8,9,15.78,4.6l0,0a12.4,12.4,0,0,0,1.52-1.31c4-4,3.57-7.49,4.1-15.28a10.64,10.64,0,0,0-14.61-10.7C66.33,140.47,65,149.59,66.07,157.92Z" style="fill:#ff8b7b"></path><path d="M69,140.13l-1.45,3.18s2.9-4.17,3.7-4,.27,1.66,1.7,1.53,2.24-2.1,4.4-1.54.07,2.59,2.53,4.68,7.93,2.65,8.55.56S78.53,130.09,69,140.13Z" style="fill:#263238"></path><path d="M82.72,143.76s0,4.74-.86,7l4.81-.56s2.7.25,2.33-3.26S84.12,142.61,82.72,143.76Z" style="fill:#263238"></path><path d="M71,159.91l-.21,0a.24.24,0,0,1,.11-.46,3.36,3.36,0,0,0,4.06-2.66.22.22,0,0,1,.28-.16.24.24,0,0,1,.17.29A3.82,3.82,0,0,1,71,159.91Z" style="fill:#263238"></path><path d="M91.2,153.61A7.39,7.39,0,0,1,87.62,158c-2.3,1.21-4-.71-3.82-3.17.16-2.21,1.55-5.51,4.08-5.71s4,2.17,3.32,4.49" style="fill:#ff8b7b"></path><path d="M76.49,151.62c0,.62-.33,1.11-.73,1.11s-.72-.5-.72-1.11.33-1.11.73-1.11.73.5.72,1.11" style="fill:#263238"></path><path d="M69.76,151.5c0,.62-.33,1.11-.73,1.11s-.73-.5-.72-1.12.33-1.11.73-1.1.72.5.72,1.11" style="fill:#263238"></path><path d="M66.79,149.23a.33.33,0,0,0,.27-.16,1.59,1.59,0,0,1,1-.83,1.91,1.91,0,0,1,1.26.2.31.31,0,0,0,.43-.1.32.32,0,0,0-.11-.43,2.46,2.46,0,0,0-1.73-.27,2.21,2.21,0,0,0-1.35,1.13.3.3,0,0,0,.11.42A.29.29,0,0,0,66.79,149.23Z" style="fill:#263238"></path><path d="M77.59,149.51a.35.35,0,0,0,.14,0,.31.31,0,0,0,.14-.41,2.44,2.44,0,0,0-1.3-1.18,2.22,2.22,0,0,0-1.74.2.31.31,0,0,0-.14.42.31.31,0,0,0,.42.13,1.61,1.61,0,0,1,1.26-.16,1.86,1.86,0,0,1,.94.85A.33.33,0,0,0,77.59,149.51Z" style="fill:#263238"></path><path d="M71.72,151.1a19.36,19.36,0,0,1-3.06,4.81c-.19.2,2.53,1.06,2.53,1.06Z" style="fill:#ff5652"></path><path d="M74.44,170h0Z"></path><path d="M109.16,265.66H57.52s1.81-36.83,1.07-43.48-1.65-17.75-3.63-25c-3.09-11.3-1.68-18.15,2.51-19.32,2-.55,10.55-3,15.11-3.92,6.45-1.25,7.06-1.2,14-1.44,0,0,23.12.31,25.47,4.87,4,7.81-.11,22.63-2.91,33.15h0l-1.44,5.69c-.27,1.2-.46,2.26-.57,3.15C106.11,227.74,109.16,265.66,109.16,265.66Z" style="fill:#ff8b7b"></path><g style="opacity:0.2"><path d="M67.58,202.93a.72.72,0,1,1-.72-.72A.72.72,0,0,1,67.58,202.93Z"></path></g><g style="opacity:0.2"><circle cx="91.18" cy="202.03" r="0.72"></circle></g><g style="opacity:0.2"><path d="M79.79,246.42c0,.68-.28,1.24-.63,1.24s-.64-.56-.64-1.24.29-1.24.64-1.24S79.79,245.73,79.79,246.42Z"></path></g><g style="opacity:0.2"><path d="M78.4,184.69c-1.77,0-2.79-1.7-3.07-2.22l-8.31.1c-.15,0-.25-.1-.25-.24a.25.25,0,0,1,.25-.25l8.46-.1a.26.26,0,0,1,.23.15c.05.11,1.27,2.8,3.67,1.87a.25.25,0,0,1,.32.14.26.26,0,0,1-.14.32A3.27,3.27,0,0,1,78.4,184.69Z"></path></g><g style="opacity:0.2"><path d="M81.25,182.47a.25.25,0,0,1,0-.49l8.07-.27h0a.24.24,0,0,1,.24.24.25.25,0,0,1-.24.26l-8.06.26Z"></path></g><polygon points="109.11 210.52 109.11 210.53 107.67 216.22 102.35 194.52 109.11 210.52" style="opacity:0.2"></polygon><path d="M113,314.78c-4.33,1.89-21.8,6.19-28.51,4.21a8.72,8.72,0,0,1-.86-1.33L83.2,319l-3.63.12c-10.95.26-20.21-.55-23.56-3.4,0-16.12-.47-39.86.76-52.18a32,32,0,0,1,1.14-6.42c10.36,4.13,30.64,4.11,50.49-1.8.41,1.67.8,3.33,1.13,5,.08.37.15.73.22,1.1C113.54,280.5,112.66,298.42,113,314.78Z" style="fill:#407BFF"></path><path d="M109.75,261.41c-15.48,8-47,6.13-53,2.15a32,32,0,0,1,1.14-6.42c10.36,4.13,30.64,4.11,50.49-1.8.41,1.67.8,3.33,1.13,5C109.61,260.68,109.68,261,109.75,261.41Z" style="opacity:0.2"></path><g style="opacity:0.2"><path d="M107.76,316.5l-.48.12c1.87-25.94-3.39-59.71-3.44-60.05l.49-.08C104.38,256.83,109.64,290.5,107.76,316.5Z"></path></g><path d="M83.66,317.66,83.2,319l-3.63.12c-2.78-13.62,0-36.75,0-36.75C79,295.14,83.66,317.66,83.66,317.66Z" style="opacity:0.2"></path><path d="M112.71,179.35c3.11,7.09,5.77,14.28,8.27,21.6l1.83,5.51,1.69,5.6q.84,2.81,1.56,5.72c.49,2,1,3.9,1.34,6.21.09.55.17,1.27.23,2,0,.47,0,1,0,1.42l-.07.89-.07.9-.09.78-.19,1.53c-.27,2-.57,3.91-.89,5.82-.66,3.82-1.34,7.6-2.07,11.38-1.48,7.54-3,15-4.81,22.52l-6.75-1c.47-7.63,1.07-15.25,1.64-22.85.29-3.8.59-7.59.83-11.36.14-1.88.26-3.74.34-5.57l0-1.32c0-.22,0-.46,0-.65v-1.07s0,0,0,0l-.26-.86c-.4-1.42-1-3.16-1.66-4.84l-2-5.17L107.36,206c-2.83-7-5.73-14-8.34-21.11Z" style="fill:#ff8b7b"></path><path d="M113.42,269.3l5.21-1.76a58.33,58.33,0,0,1,4.2,14.17c.5,3.18-3.79,7.82-3.79,7.82s-1,4.13-2.21,3.18.34-6.65.19-7.86c-.49-3.77-1-7.59-1.36-8s.63,4.72-.71,6.21-1.47-5.22-2.5-7.28S112.22,269.8,113.42,269.3Z" style="fill:#ff8b7b"></path><path d="M119.41,288.94a13.9,13.9,0,0,0,.63-7.58c0-.21-.36-.18-.32,0a13.66,13.66,0,0,1-.61,7.41c-.07.2.22.34.3.14Z" style="opacity:0.2"></path><path d="M121,282.55a8.69,8.69,0,0,1-.3,3.86c-.06.2.26.26.32.06a9,9,0,0,0,.31-4c0-.2-.36-.18-.33,0Z" style="opacity:0.2"></path><path d="M68.19,186.24c-.8,6.87-1.84,13.7-3,20.53s-2.35,13.63-3.63,20.42l-.5,2.54-.12.65-.17.78a2.67,2.67,0,0,1-.09.29l-.07.22-.14.44-.12.36-.26.71c-.5,1.33-1,2.56-1.51,3.78h0l-.51,1.22c-.53,1.23-1.06,2.45-1.59,3.65-.88,2-1.76,3.95-2.67,5.91-2.93,6.31-6,12.55-9.32,18.68l-6.08-2.32c1.58-6.77,3.38-13.46,5.23-20.1l2.78-9.91c.45-1.63.92-3.28,1.29-4.8l.12-.53.06-.26,0-.18v-.09a.1.1,0,0,0,0,0h0a1,1,0,0,0,0,.14l.06-.63.25-2.58c.7-6.86,1.44-13.72,2.32-20.55s1.8-13.67,3-20.46Z" style="fill:#ff8b7b"></path><path d="M58.63,237h0l-.51,1.22c-.53,1.23-1.06,2.45-1.59,3.65,2-14.42-.52-42.19-.52-42.19a147.37,147.37,0,0,1,2.67,17C59,221.55,58.75,232.92,58.63,237Z" style="opacity:0.2"></path><path d="M43.79,264.26l-5.23-.47a50,50,0,0,0-1.64,14.44c.12,3.22,5.21,7,5.21,7s1.74,3.86,2.78,2.7-1.61-6.47-1.68-7.69c-.25-3.79-.52-7.62-.2-8.13s.28,4.75,1.87,6,.46-5.4,1.08-7.61S45.06,264.52,43.79,264.26Z" style="fill:#ff8b7b"></path><path d="M41.66,284.68a13.92,13.92,0,0,1-2.07-7.32c0-.21.33-.25.33,0a13.65,13.65,0,0,0,2,7.17c.1.17-.16.37-.27.19Z" style="opacity:0.2"></path><path d="M38.88,278.71a8.69,8.69,0,0,0,1,3.73c.1.18-.21.3-.31.12a8.8,8.8,0,0,1-1-3.81c0-.21.31-.25.32,0Z" style="opacity:0.2"></path></g></svg>
